<mxfile host="app.diagrams.net" modified="2024-03-08T08:56:58.963Z" agent="Mozilla/5.0 (Windows NT 10.0; Win64; x64) AppleWebKit/537.36 (KHTML, like Gecko) Chrome/122.0.0.0 Safari/537.36" version="24.0.2" etag="WcUJ9adyfXwI-L4h3-x-" type="github">
  <diagram name="Page-1" id="8H-2plz9dljTCpLHG-m3">
    <mxGraphModel>
      <root>
        <mxCell id="0" />
        <mxCell id="1" parent="0" />
      </root>
    </mxGraphModel>
  </diagram>
</mxfile>
